<svg xmlns="http://www.w3.org/2000/svg" width="120" height="50" viewBox="0 0 120 50">
  <defs>
    <linearGradient id="logo-gradient" x1="0%" y1="0%" x2="100%" y2="100%">
      <stop offset="0%" stop-color="#2e5d9f" />
      <stop offset="100%" stop-color="#1e4785" />
    </linearGradient>
  </defs>
  <rect x="5" y="5" width="110" height="40" rx="5" fill="none" stroke="url(#logo-gradient)" stroke-width="2" />
  <path d="M 20 15 L 20 35 M 20 15 L 30 15 C 35 15 38 18 38 22 C 38 26 35 29 30 29 L 20 29" fill="none" stroke="url(#logo-gradient)" stroke-width="3" stroke-linecap="round" stroke-linejoin="round" />
  <path d="M 45 15 L 55 35 M 65 15 L 55 35 M 45 25 L 65 25" fill="none" stroke="url(#logo-gradient)" stroke-width="3" stroke-linecap="round" stroke-linejoin="round" />
  <path d="M 75 15 C 85 15 95 20 95 25 C 95 30 85 35 75 35 M 75 15 L 75 35" fill="none" stroke="url(#logo-gradient)" stroke-width="3" stroke-linecap="round" stroke-linejoin="round" />
  <rect x="97" y="15" width="8" height="8" fill="#4caf50" rx="1" />
</svg>
